<svg width="358" height="78" viewBox="0 0 358 78" fill="none" xmlns="http://www.w3.org/2000/svg">
<g filter="url(#filter0_ddd_1_100)">
<rect x="11" width="336" height="55" rx="6" fill="#00A1D3"/>
<path d="M158.818 32.11C159.268 32.11 159.646 32.056 159.952 31.948C160.258 31.84 160.501 31.696 160.681 31.516C160.867 31.336 160.999 31.126 161.077 30.886C161.161 30.646 161.203 30.391 161.203 30.121C161.203 29.839 161.158 29.587 161.068 29.365C160.978 29.137 160.837 28.945 160.645 28.789C160.453 28.627 160.204 28.504 159.898 28.42C159.598 28.336 159.235 28.294 158.809 28.294H156.37V32.11H158.818ZM156.37 22.858V26.62H158.296C159.124 26.62 159.748 26.47 160.168 26.17C160.594 25.87 160.807 25.393 160.807 24.739C160.807 24.061 160.615 23.578 160.231 23.29C159.847 23.002 159.247 22.858 158.431 22.858H156.37ZM158.431 20.986C159.283 20.986 160.012 21.067 160.618 21.229C161.224 21.391 161.719 21.622 162.103 21.922C162.493 22.222 162.778 22.585 162.958 23.011C163.138 23.437 163.228 23.917 163.228 24.451C163.228 24.757 163.183 25.051 163.093 25.333C163.003 25.609 162.862 25.87 162.67 26.116C162.484 26.356 162.244 26.575 161.95 26.773C161.662 26.971 161.317 27.139 160.915 27.277C162.703 27.679 163.597 28.645 163.597 30.175C163.597 30.727 163.492 31.237 163.282 31.705C163.072 32.173 162.766 32.578 162.364 32.92C161.962 33.256 161.467 33.52 160.879 33.712C160.291 33.904 159.619 34 158.863 34H153.949V20.986H158.431ZM169.391 24.622C170.075 24.622 170.696 24.733 171.254 24.955C171.818 25.177 172.298 25.492 172.694 25.9C173.096 26.308 173.405 26.806 173.621 27.394C173.837 27.982 173.945 28.639 173.945 29.365C173.945 30.097 173.837 30.757 173.621 31.345C173.405 31.933 173.096 32.434 172.694 32.848C172.298 33.262 171.818 33.58 171.254 33.802C170.696 34.024 170.075 34.135 169.391 34.135C168.701 34.135 168.074 34.024 167.51 33.802C166.946 33.58 166.463 33.262 166.061 32.848C165.665 32.434 165.356 31.933 165.134 31.345C164.918 30.757 164.81 30.097 164.81 29.365C164.81 28.639 164.918 27.982 165.134 27.394C165.356 26.806 165.665 26.308 166.061 25.9C166.463 25.492 166.946 25.177 167.51 24.955C168.074 24.733 168.701 24.622 169.391 24.622ZM169.391 32.425C170.159 32.425 170.726 32.167 171.092 31.651C171.464 31.135 171.65 30.379 171.65 29.383C171.65 28.387 171.464 27.628 171.092 27.106C170.726 26.584 170.159 26.323 169.391 26.323C168.611 26.323 168.032 26.587 167.654 27.115C167.282 27.637 167.096 28.393 167.096 29.383C167.096 30.373 167.282 31.129 167.654 31.651C168.032 32.167 168.611 32.425 169.391 32.425ZM183.939 24.766V34H181.716V28.609C181.716 28.471 181.722 28.321 181.734 28.159C181.752 27.991 181.773 27.823 181.797 27.655C181.677 27.931 181.545 28.174 181.401 28.384C181.389 28.396 181.329 28.48 181.221 28.636C181.113 28.786 180.972 28.981 180.798 29.221C180.63 29.461 180.438 29.734 180.222 30.04C180.006 30.34 179.787 30.646 179.565 30.958C179.043 31.696 178.452 32.53 177.792 33.46C177.708 33.586 177.597 33.709 177.459 33.829C177.327 33.949 177.174 34.009 177 34.009H175.641V24.775H177.864V30.166C177.864 30.304 177.855 30.457 177.837 30.625C177.825 30.787 177.807 30.952 177.783 31.12C177.915 30.826 178.047 30.583 178.179 30.391C178.185 30.379 178.242 30.298 178.35 30.148C178.458 29.998 178.596 29.803 178.764 29.563C178.938 29.323 179.133 29.053 179.349 28.753C179.565 28.447 179.784 28.135 180.006 27.817C180.528 27.079 181.122 26.245 181.788 25.315C181.872 25.183 181.983 25.06 182.121 24.946C182.259 24.826 182.415 24.766 182.589 24.766H183.939ZM179.916 22.426C180.138 22.426 180.324 22.402 180.474 22.354C180.624 22.306 180.744 22.228 180.834 22.12C180.924 22.006 180.987 21.856 181.023 21.67C181.059 21.484 181.077 21.256 181.077 20.986H182.391C182.547 20.986 182.661 21.052 182.733 21.184C182.811 21.31 182.85 21.451 182.85 21.607C182.85 21.913 182.781 22.192 182.643 22.444C182.505 22.69 182.307 22.9 182.049 23.074C181.791 23.242 181.482 23.374 181.122 23.47C180.762 23.56 180.36 23.605 179.916 23.605C179.472 23.605 179.07 23.56 178.71 23.47C178.35 23.374 178.041 23.242 177.783 23.074C177.525 22.9 177.327 22.69 177.189 22.444C177.051 22.192 176.982 21.913 176.982 21.607C176.982 21.451 177.018 21.31 177.09 21.184C177.168 21.052 177.285 20.986 177.441 20.986H178.755C178.755 21.256 178.773 21.484 178.809 21.67C178.845 21.856 178.908 22.006 178.998 22.12C179.088 22.228 179.205 22.306 179.349 22.354C179.499 22.402 179.688 22.426 179.916 22.426ZM194.055 26.413H190.761V34H188.538V26.413H185.253V24.766H194.055V26.413ZM203.662 24.766V34H201.439V28.609C201.439 28.471 201.445 28.321 201.457 28.159C201.475 27.991 201.496 27.823 201.52 27.655C201.4 27.931 201.268 28.174 201.124 28.384C201.112 28.396 201.052 28.48 200.944 28.636C200.836 28.786 200.695 28.981 200.521 29.221C200.353 29.461 200.161 29.734 199.945 30.04C199.729 30.34 199.51 30.646 199.288 30.958C198.766 31.696 198.175 32.53 197.515 33.46C197.431 33.586 197.32 33.709 197.182 33.829C197.05 33.949 196.897 34.009 196.723 34.009H195.364V24.775H197.587V30.166C197.587 30.304 197.578 30.457 197.56 30.625C197.548 30.787 197.53 30.952 197.506 31.12C197.638 30.826 197.77 30.583 197.902 30.391C197.908 30.379 197.965 30.298 198.073 30.148C198.181 29.998 198.319 29.803 198.487 29.563C198.661 29.323 198.856 29.053 199.072 28.753C199.288 28.447 199.507 28.135 199.729 27.817C200.251 27.079 200.845 26.245 201.511 25.315C201.595 25.183 201.706 25.06 201.844 24.946C201.982 24.826 202.138 24.766 202.312 24.766H203.662Z" fill="white"/>
</g>
<defs>
<filter id="filter0_ddd_1_100" x="0.982759" y="0" width="356.034" height="77.5388" filterUnits="userSpaceOnUse" color-interpolation-filters="sRGB">
<feFlood flood-opacity="0" result="BackgroundImageFix"/>
<feColorMatrix in="SourceAlpha" type="matrix" values="0 0 0 0 0 0 0 0 0 0 0 0 0 0 0 0 0 0 127 0" result="hardAlpha"/>
<feOffset dy="2.76726"/>
<feGaussianBlur stdDeviation="1.1069"/>
<feColorMatrix type="matrix" values="0 0 0 0 0 0 0 0 0 0 0 0 0 0 0 0 0 0 0.0196802 0"/>
<feBlend mode="normal" in2="BackgroundImageFix" result="effect1_dropShadow_1_100"/>
<feColorMatrix in="SourceAlpha" type="matrix" values="0 0 0 0 0 0 0 0 0 0 0 0 0 0 0 0 0 0 127 0" result="hardAlpha"/>
<feOffset dy="6.6501"/>
<feGaussianBlur stdDeviation="2.66004"/>
<feColorMatrix type="matrix" values="0 0 0 0 0 0 0 0 0 0 0 0 0 0 0 0 0 0 0.0282725 0"/>
<feBlend mode="normal" in2="effect1_dropShadow_1_100" result="effect2_dropShadow_1_100"/>
<feColorMatrix in="SourceAlpha" type="matrix" values="0 0 0 0 0 0 0 0 0 0 0 0 0 0 0 0 0 0 127 0" result="hardAlpha"/>
<feOffset dy="12.5216"/>
<feGaussianBlur stdDeviation="5.00862"/>
<feColorMatrix type="matrix" values="0 0 0 0 0 0 0 0 0 0 0 0 0 0 0 0 0 0 0.035 0"/>
<feBlend mode="normal" in2="effect2_dropShadow_1_100" result="effect3_dropShadow_1_100"/>
<feBlend mode="normal" in="SourceGraphic" in2="effect3_dropShadow_1_100" result="shape"/>
</filter>
</defs>
</svg>
